<svg width="108" height="18" viewBox="0 0 108 18" fill="none" xmlns="http://www.w3.org/2000/svg">
<path d="M16.3548 6.5008L11.2882 5.72971L9.0233 0.921406C8.96144 0.789757 8.85967 0.683184 8.73395 0.618405C8.41866 0.455412 8.03552 0.591239 7.87788 0.921406L5.61296 5.72971L0.546342 6.5008C0.406656 6.52169 0.278942 6.59065 0.181162 6.69513C0.0629508 6.82237 -0.0021889 6.99354 5.61657e-05 7.17104C0.00230123 7.34854 0.0717474 7.51784 0.193135 7.64175L3.8589 11.3843L2.99285 16.6691C2.97254 16.792 2.98553 16.9184 3.03035 17.034C3.07517 17.1496 3.15002 17.2498 3.24641 17.3231C3.34281 17.3964 3.4569 17.44 3.57574 17.4488C3.69458 17.4577 3.81341 17.4315 3.91877 17.3733L8.45059 14.8782L12.9824 17.3733C13.1061 17.4423 13.2498 17.4652 13.3875 17.4402C13.7347 17.3775 13.9682 17.0327 13.9083 16.6691L13.0423 11.3843L16.708 7.64175C16.8078 7.53936 16.8737 7.40562 16.8936 7.25934C16.9475 6.89365 16.7041 6.55513 16.3548 6.5008Z" fill="#FFC107"/>
<path d="M39.4017 6.5008L34.3351 5.72971L32.0702 0.921406C32.0083 0.789757 31.9065 0.683184 31.7808 0.618405C31.4655 0.455412 31.0824 0.591239 30.9248 0.921406L28.6598 5.72971L23.5932 6.5008C23.4535 6.52169 23.3258 6.59065 23.228 6.69513C23.1098 6.82237 23.0447 6.99354 23.0469 7.17104C23.0492 7.34854 23.1186 7.51784 23.24 7.64175L26.9058 11.3843L26.0397 16.6691C26.0194 16.792 26.0324 16.9184 26.0772 17.034C26.122 17.1496 26.1969 17.2498 26.2933 17.3231C26.3897 17.3964 26.5038 17.44 26.6226 17.4488C26.7415 17.4577 26.8603 17.4315 26.9656 17.3733L31.4975 14.8782L36.0293 17.3733C36.153 17.4423 36.2967 17.4652 36.4344 17.4402C36.7816 17.3775 37.0151 17.0327 36.9552 16.6691L36.0892 11.3843L39.7549 7.64175C39.8547 7.53936 39.9205 7.40562 39.9405 7.25934C39.9944 6.89365 39.7509 6.55513 39.4017 6.5008Z" fill="#FFC107"/>
<path d="M60.9125 6.5008L55.8458 5.72971L53.5809 0.921406C53.5191 0.789757 53.4173 0.683184 53.2916 0.618405C52.9763 0.455412 52.5931 0.591239 52.4355 0.921406L50.1706 5.72971L45.104 6.5008C44.9643 6.52169 44.8366 6.59065 44.7388 6.69513C44.6206 6.82237 44.5554 6.99354 44.5577 7.17104C44.5599 7.34854 44.6294 7.51784 44.7508 7.64175L48.4165 11.3843L47.5505 16.6691C47.5302 16.792 47.5431 16.9184 47.588 17.034C47.6328 17.1496 47.7076 17.2498 47.804 17.3231C47.9004 17.3964 48.0145 17.44 48.1334 17.4488C48.2522 17.4577 48.371 17.4315 48.4764 17.3733L53.0082 14.8782L57.54 17.3733C57.6638 17.4423 57.8074 17.4652 57.9451 17.4402C58.2923 17.3775 58.5258 17.0327 58.466 16.6691L57.5999 11.3843L61.2657 7.64175C61.3654 7.53936 61.4313 7.40562 61.4512 7.25934C61.5051 6.89365 61.2617 6.55513 60.9125 6.5008Z" fill="#FFC107"/>
<path d="M83.9593 6.5008L78.8927 5.72971L76.6278 0.921406C76.5659 0.789757 76.4642 0.683184 76.3384 0.618405C76.0232 0.455412 75.64 0.591239 75.4824 0.921406L73.2175 5.72971L68.1508 6.5008C68.0111 6.52169 67.8834 6.59065 67.7857 6.69513C67.6674 6.82237 67.6023 6.99354 67.6045 7.17104C67.6068 7.34854 67.6762 7.51784 67.7976 7.64175L71.4634 11.3843L70.5973 16.6691C70.577 16.792 70.59 16.9184 70.6348 17.034C70.6797 17.1496 70.7545 17.2498 70.8509 17.3231C70.9473 17.3964 71.0614 17.44 71.1802 17.4488C71.2991 17.4577 71.4179 17.4315 71.5233 17.3733L76.0551 14.8782L80.5869 17.3733C80.7106 17.4423 80.8543 17.4652 80.992 17.4402C81.3392 17.3775 81.5727 17.0327 81.5128 16.6691L80.6468 11.3843L84.3125 7.64175C84.4123 7.53936 84.4782 7.40562 84.4981 7.25934C84.552 6.89365 84.3085 6.55513 83.9593 6.5008Z" fill="#FFC107"/>
<path d="M107.006 6.5008L101.94 5.72971L99.6747 0.921406C99.6128 0.789757 99.511 0.683184 99.3853 0.618405C99.07 0.455412 98.6869 0.591239 98.5292 0.921406L96.2643 5.72971L91.1977 6.5008C91.058 6.52169 90.9303 6.59065 90.8325 6.69513C90.7143 6.82237 90.6492 6.99354 90.6514 7.17104C90.6537 7.34854 90.7231 7.51784 90.8445 7.64175L94.5103 11.3843L93.6442 16.6691C93.6239 16.792 93.6369 16.9184 93.6817 17.034C93.7265 17.1496 93.8014 17.2498 93.8978 17.3231C93.9942 17.3964 94.1083 17.44 94.2271 17.4488C94.3459 17.4577 94.4648 17.4315 94.5701 17.3733L99.102 14.8782L103.634 17.3733C103.758 17.4423 103.901 17.4652 104.039 17.4402C104.386 17.3775 104.62 17.0327 104.56 16.6691L103.694 11.3843L107.359 7.64175C107.459 7.53936 107.525 7.40562 107.545 7.25934C107.599 6.89365 107.355 6.55513 107.006 6.5008Z" fill="#FFC107"/>
</svg>
