<svg width="8" height="13" viewBox="0 0 8 13" fill="none" xmlns="http://www.w3.org/2000/svg">
<path fill-rule="evenodd" clip-rule="evenodd" d="M7.01632 5.87983C7.0979 5.96121 7.16263 6.05787 7.20679 6.1643C7.25095 6.27072 7.27368 6.38482 7.27368 6.50004C7.27368 6.61526 7.25095 6.72935 7.20679 6.83578C7.16263 6.94221 7.0979 7.03887 7.01632 7.12025L1.76033 12.3762C1.59584 12.5407 1.37275 12.6331 1.14013 12.6331C0.907504 12.6331 0.684408 12.5407 0.519919 12.3762C0.35543 12.2117 0.263021 11.9887 0.263021 11.756C0.263021 11.5234 0.35543 11.3003 0.519919 11.1358L5.15746 6.50004L0.519919 1.86426C0.35543 1.69977 0.263021 1.47667 0.263021 1.24405C0.263021 1.01143 0.35543 0.788331 0.519919 0.623842C0.684408 0.459353 0.907504 0.366943 1.14013 0.366943C1.37275 0.366943 1.59584 0.459353 1.76033 0.623842L7.01632 5.87983Z" fill="#07484A"/>
</svg>
