<svg width="69" height="69" viewBox="0 0 69 69" fill="none" xmlns="http://www.w3.org/2000/svg">
<ellipse cx="34.6125" cy="34.1784" rx="34.0867" ry="34.0867" transform="rotate(180 34.6125 34.1784)" fill="#F9D9DA"/>
<path fill-rule="evenodd" clip-rule="evenodd" d="M41.6738 33.56C41.6738 33.7599 41.5883 33.9516 41.4361 34.0929C41.2839 34.2343 41.0775 34.3137 40.8622 34.3137L26.2534 34.3137C26.0382 34.3137 25.8317 34.2343 25.6795 34.0929C25.5273 33.9516 25.4418 33.7599 25.4418 33.56C25.4418 33.3602 25.5273 33.1685 25.6795 33.0271C25.8317 32.8858 26.0382 32.8064 26.2534 32.8064L40.8622 32.8064C41.0775 32.8064 41.2839 32.8858 41.4361 33.0271C41.5883 33.1685 41.6738 33.3602 41.6738 33.56Z" fill="black"/>
<path fill-rule="evenodd" clip-rule="evenodd" d="M43.0594 33.0265C43.135 33.0965 43.195 33.1796 43.2359 33.2712C43.2768 33.3628 43.2979 33.4609 43.2979 33.56C43.2979 33.6592 43.2768 33.7573 43.2359 33.8489C43.195 33.9404 43.135 34.0236 43.0594 34.0936L38.1898 38.6154C38.0374 38.7569 37.8307 38.8364 37.6152 38.8364C37.3997 38.8364 37.193 38.7569 37.0406 38.6154C36.8882 38.4739 36.8026 38.2819 36.8026 38.0818C36.8026 37.8817 36.8882 37.6897 37.0406 37.5482L41.3372 33.56L37.0406 29.5718C36.8882 29.4303 36.8026 29.2384 36.8026 29.0383C36.8026 28.8381 36.8882 28.6462 37.0406 28.5047C37.193 28.3632 37.3997 28.2837 37.6152 28.2837C37.8307 28.2837 38.0374 28.3632 38.1898 28.5047L43.0594 33.0265Z" fill="black"/>
</svg>
