<svg width="69" height="69" viewBox="0 0 69 69" fill="none" xmlns="http://www.w3.org/2000/svg">
<circle cx="34.8264" cy="34.542" r="34.0867" transform="rotate(180 34.8264 34.542)" fill="#E0EFF6"/>
<path fill-rule="evenodd" clip-rule="evenodd" d="M27.5396 34.0141C27.5396 33.8139 27.6252 33.622 27.7776 33.4804C27.93 33.3389 28.1367 33.2594 28.3523 33.2594L42.9816 33.2594C43.1971 33.2594 43.4039 33.3389 43.5563 33.4804C43.7087 33.622 43.7943 33.8139 43.7943 34.0141C43.7943 34.2143 43.7087 34.4062 43.5563 34.5478C43.4039 34.6893 43.1971 34.7688 42.9816 34.7688L28.3523 34.7688C28.1367 34.7688 27.93 34.6893 27.7776 34.5478C27.6252 34.4062 27.5396 34.2143 27.5396 34.0141V34.0141Z" fill="black"/>
<path fill-rule="evenodd" clip-rule="evenodd" d="M26.1519 34.5482C26.0762 34.4781 26.0161 34.3948 25.9751 34.3031C25.9342 34.2114 25.9131 34.1131 25.9131 34.0139C25.9131 33.9146 25.9342 33.8163 25.9751 33.7246C26.0161 33.6329 26.0762 33.5496 26.1519 33.4795L31.0283 28.9514C31.1809 28.8097 31.3879 28.7301 31.6037 28.7301C31.8195 28.7301 32.0265 28.8097 32.1791 28.9514C32.3317 29.0931 32.4175 29.2853 32.4175 29.4857C32.4175 29.6862 32.3317 29.8784 32.1791 30.0201L27.8765 34.0139L32.1791 38.0077C32.3317 38.1494 32.4175 38.3416 32.4175 38.542C32.4175 38.7424 32.3317 38.9346 32.1791 39.0763C32.0265 39.218 31.8195 39.2976 31.6037 39.2976C31.3879 39.2976 31.1809 39.218 31.0283 39.0763L26.1519 34.5482Z" fill="black"/>
</svg>
